<svg id="Layer_1" data-name="Layer 1" xmlns="http://www.w3.org/2000/svg" viewBox="0 0 429.68 283.15"><defs><style>.cls-1,.cls-2,.cls-3,.cls-4,.cls-5{fill:none;stroke-miterlimit:10;}.cls-1{stroke:#9261e5;}.cls-1,.cls-3,.cls-4,.cls-5{stroke-width:4px;}.cls-2{stroke:#000;stroke-width:3px;}.cls-3{stroke:#b72d89;}.cls-4{stroke:#44337a;}.cls-5{stroke:#45cece;}</style></defs><title>RepliconGeneticsLogo</title><path class="cls-1" d="M206.11,233.5c10.53,28.76,17.44,49,17.44,49" transform="translate(-5.19)"/><path class="cls-1" d="M75.55,152.5S83.05,41,112.05,41c13.72,0,39.41,54,62.68,111" transform="translate(-5.19)"/><path class="cls-2" d="M101.05,152" transform="translate(-5.19)"/><path class="cls-2" d="M75.05,152" transform="translate(-5.19)"/><path class="cls-2" d="M255.05,282" transform="translate(-5.19)"/><path class="cls-2" d="M223.05,282" transform="translate(-5.19)"/><path class="cls-3" d="M230,233.5c10,28.9,16.53,49,16.53,49" transform="translate(-5.19)"/><path class="cls-3" d="M98.55,152.5S106.05,28,135.05,28c14.25,0,41.43,61.48,65.38,124" transform="translate(-5.19)"/><path class="cls-4" d="M254,233.86c9.48,28.83,15.59,48.64,15.59,48.64" transform="translate(-5.19)"/><path class="cls-4" d="M121.55,152.5S129.05,15,158.05,15c14.5,0,44.38,69.87,68.63,136.75" transform="translate(-5.19)"/><path class="cls-5" d="M277.59,233.5c9.12,29.14,15,49,15,49" transform="translate(-5.19)"/><path class="cls-5" d="M144.55,152.5S152.05,2,181.05,2c15.21,0,45.13,77.13,70.15,150.5" transform="translate(-5.19)"/><path d="M29.83,183.71a10.37,10.37,0,0,1-.89,4.37,11,11,0,0,1-2.37,3.35,14.17,14.17,0,0,1-3.51,2.44,20.86,20.86,0,0,1-4.21,1.56l14.58,17.75H28.37L14.58,196.1c-.33,0-.7.07-1.13.09l-1.19,0H9.33v17H5.19V172.55h9.75a23.57,23.57,0,0,1,5.71.67,14.49,14.49,0,0,1,4.76,2.08,10.39,10.39,0,0,1,3.23,3.5A9.86,9.86,0,0,1,29.83,183.71Zm-4.15.13a6.79,6.79,0,0,0-.91-3.63,7.39,7.39,0,0,0-2.44-2.44,11.21,11.21,0,0,0-3.48-1.38,19.06,19.06,0,0,0-4-.42H9.33V192.8h3.3a22,22,0,0,0,5-.55,14,14,0,0,0,4.18-1.64,8.37,8.37,0,0,0,2.83-2.78A7.37,7.37,0,0,0,25.68,183.84Z" transform="translate(-5.19)"/><path d="M48.5,183.47a11.65,11.65,0,0,1,4.91.95A9.29,9.29,0,0,1,56.79,187a10.27,10.27,0,0,1,2,3.84,17.34,17.34,0,0,1,.61,4.7,23.45,23.45,0,0,1-.36,4H39.83q.06,5.34,2.57,8.13t7.5,2.79a19.32,19.32,0,0,0,4.51-.52,18.88,18.88,0,0,0,4-1.37l.67,3.07a21.13,21.13,0,0,1-4.42,1.53,22.88,22.88,0,0,1-5.16.59,14.8,14.8,0,0,1-6.07-1.16,11.67,11.67,0,0,1-4.3-3.21,13.63,13.63,0,0,1-2.56-4.81,20.14,20.14,0,0,1-.85-6,19.87,19.87,0,0,1,.88-6.07,14.66,14.66,0,0,1,2.53-4.82,11.35,11.35,0,0,1,4-3.17A12.37,12.37,0,0,1,48.5,183.47Zm-.19,3.11a7.3,7.3,0,0,0-3.57.85,8.49,8.49,0,0,0-2.62,2.21,10.42,10.42,0,0,0-1.65,3.09,12.69,12.69,0,0,0-.64,3.55H55.45a10.82,10.82,0,0,0-1.4-6.94Q52.28,186.58,48.31,186.58Z" transform="translate(-5.19)"/><path d="M65.88,184.08h3.84v4a15.16,15.16,0,0,1,3.91-3.27,11.1,11.1,0,0,1,5.73-1.37,10.21,10.21,0,0,1,4.94,1.16,10.43,10.43,0,0,1,3.57,3.17A14.14,14.14,0,0,1,90,192.53a23.84,23.84,0,0,1,.7,5.89,18.5,18.5,0,0,1-1,6.37,13.76,13.76,0,0,1-3,4.85,12.84,12.84,0,0,1-4.63,3.08A16.53,16.53,0,0,1,76,213.79a22.21,22.21,0,0,1-3.24-.21A20.13,20.13,0,0,1,70,213v12.79H65.88Zm12.5,2.68a8.24,8.24,0,0,0-4.84,1.51A18.06,18.06,0,0,0,70,191.42v18.15a11.32,11.32,0,0,0,2.65.71,20.86,20.86,0,0,0,3,.21q5.37,0,8.17-3.12c1.87-2.09,2.81-5.07,2.81-9a21.05,21.05,0,0,0-.49-4.72A11.14,11.14,0,0,0,84.64,190a7.22,7.22,0,0,0-2.56-2.39A7.58,7.58,0,0,0,78.38,186.76Z" transform="translate(-5.19)"/><path d="M101.2,206.22a5.88,5.88,0,0,0,.67,3,2.91,2.91,0,0,0,2.74,1.16q.8,0,1.47-.06a5,5,0,0,0,1.34-.31l.18,3.05a11.68,11.68,0,0,1-4,.62c-2.28,0-3.94-.69-5-2a8.24,8.24,0,0,1-1.56-5.15V170.11h4.09Z" transform="translate(-5.19)"/><path d="M112.12,175.23a2.82,2.82,0,0,1,.79-2,2.67,2.67,0,0,1,2-.82,2.75,2.75,0,0,1,2.08.82,2.82,2.82,0,0,1,.79,2,2.75,2.75,0,0,1-2.87,2.81,2.67,2.67,0,0,1-2-.82A2.75,2.75,0,0,1,112.12,175.23Zm.79,38v-29.1H117v29.1Z" transform="translate(-5.19)"/><path d="M137.55,183.53a21.54,21.54,0,0,1,4.24.42,15.68,15.68,0,0,1,3.63,1.14l-.55,3.2a19.16,19.16,0,0,0-3.41-1.07,17.24,17.24,0,0,0-3.6-.39,11.51,11.51,0,0,0-4.64.85,8.55,8.55,0,0,0-3.23,2.43,9.86,9.86,0,0,0-1.89,3.74,19.27,19.27,0,0,0,0,9.62,9.93,9.93,0,0,0,1.89,3.74,8.42,8.42,0,0,0,3.23,2.42,11.34,11.34,0,0,0,4.64.86,16.82,16.82,0,0,0,3.57-.39,19.63,19.63,0,0,0,3.38-1.07l.61,3.2a15.73,15.73,0,0,1-3.75,1.14,22.31,22.31,0,0,1-4.12.42,15.26,15.26,0,0,1-6.34-1.22,12.16,12.16,0,0,1-4.42-3.33,13.74,13.74,0,0,1-2.57-4.82,20.57,20.57,0,0,1,0-11.5,13.66,13.66,0,0,1,2.57-4.84,12.05,12.05,0,0,1,4.42-3.33A15.26,15.26,0,0,1,137.55,183.53Z" transform="translate(-5.19)"/><path d="M177,198.66a18.56,18.56,0,0,1-.89,5.73,14.15,14.15,0,0,1-2.62,4.82,13.05,13.05,0,0,1-4.3,3.33,14.34,14.34,0,0,1-11.71,0,13.05,13.05,0,0,1-4.3-3.33,14.15,14.15,0,0,1-2.62-4.82,18.56,18.56,0,0,1-.89-5.73,19,19,0,0,1,.89-5.77,14.2,14.2,0,0,1,2.62-4.85,12.89,12.89,0,0,1,4.3-3.32,14.34,14.34,0,0,1,11.71,0,12.89,12.89,0,0,1,4.3,3.32,14.2,14.2,0,0,1,2.62,4.85A19,19,0,0,1,177,198.66Zm-4.09,0a17.16,17.16,0,0,0-.61-4.64,11,11,0,0,0-1.8-3.78,8.73,8.73,0,0,0-3-2.53,9.65,9.65,0,0,0-8.35,0,8.73,8.73,0,0,0-3,2.53,11.23,11.23,0,0,0-1.8,3.78,17.16,17.16,0,0,0-.61,4.64,16.62,16.62,0,0,0,.61,4.63,11.6,11.6,0,0,0,1.8,3.76,8.42,8.42,0,0,0,3,2.53,10,10,0,0,0,8.35,0,8.42,8.42,0,0,0,3-2.53,11.4,11.4,0,0,0,1.8-3.76A16.62,16.62,0,0,0,172.87,198.66Z" transform="translate(-5.19)"/><path d="M183.49,213.18v-29.1h3.84v4.21a12.33,12.33,0,0,1,4.18-3.57,11.69,11.69,0,0,1,5.46-1.25,8.75,8.75,0,0,1,4.6,1.16,9.61,9.61,0,0,1,3.17,3.11,13.78,13.78,0,0,1,1.83,4.54,24.77,24.77,0,0,1,.58,5.46v15.44h-4.08V198.05a25.77,25.77,0,0,0-.37-4.48,10.78,10.78,0,0,0-1.22-3.54,6.15,6.15,0,0,0-2.26-2.32,6.73,6.73,0,0,0-3.47-.82,8.32,8.32,0,0,0-4.67,1.37,14.64,14.64,0,0,0-3.51,3.14v21.78Z" transform="translate(-5.19)"/><path d="M246.87,171.82a37.33,37.33,0,0,1,6.34.52,20.88,20.88,0,0,1,5.61,1.74l-.73,3.35a29.63,29.63,0,0,0-11.16-2.2,20.27,20.27,0,0,0-7.17,1.2,14.71,14.71,0,0,0-5.49,3.51,15.74,15.74,0,0,0-3.54,5.68,22.09,22.09,0,0,0-1.25,7.7q0,8.19,4.48,12.74t13,4.56a35.8,35.8,0,0,0,4.36-.31,24.16,24.16,0,0,0,4-.79V195.73h3.85v16.14a28.13,28.13,0,0,1-5.92,1.5,44.07,44.07,0,0,1-6.77.54,24.59,24.59,0,0,1-8.85-1.5,18.83,18.83,0,0,1-6.64-4.2,18.07,18.07,0,0,1-4.21-6.53,23.14,23.14,0,0,1-1.47-8.39,24.8,24.8,0,0,1,1.5-8.84,18.81,18.81,0,0,1,4.3-6.78,19.1,19.1,0,0,1,6.8-4.33A25,25,0,0,1,246.87,171.82Z" transform="translate(-5.19)"/><path d="M278.22,183.47a11.62,11.62,0,0,1,4.91.95,9.29,9.29,0,0,1,3.38,2.59,10.43,10.43,0,0,1,2,3.84,17.74,17.74,0,0,1,.61,4.7,23.49,23.49,0,0,1-.37,4H269.56q.06,5.34,2.56,8.13t7.5,2.79a19.26,19.26,0,0,0,4.51-.52,18.88,18.88,0,0,0,4-1.37l.67,3.07a20.93,20.93,0,0,1-4.42,1.53,22.88,22.88,0,0,1-5.16.59,14.76,14.76,0,0,1-6.06-1.16,11.7,11.7,0,0,1-4.31-3.21,13.79,13.79,0,0,1-2.56-4.81,20.14,20.14,0,0,1-.85-6,19.87,19.87,0,0,1,.88-6.07,14.85,14.85,0,0,1,2.53-4.82,11.35,11.35,0,0,1,4-3.17A12.44,12.44,0,0,1,278.22,183.47Zm-.18,3.11a7.25,7.25,0,0,0-3.57.85,8.41,8.41,0,0,0-2.63,2.21,10.17,10.17,0,0,0-1.64,3.09,12.34,12.34,0,0,0-.64,3.55h15.61a10.76,10.76,0,0,0-1.4-6.94Q282,186.58,278,186.58Z" transform="translate(-5.19)"/><path d="M295.6,213.18v-29.1h3.85v4.21a12.33,12.33,0,0,1,4.18-3.57,11.69,11.69,0,0,1,5.46-1.25,8.78,8.78,0,0,1,4.6,1.16,9.61,9.61,0,0,1,3.17,3.11,14,14,0,0,1,1.83,4.54,24.77,24.77,0,0,1,.58,5.46v15.44h-4.09V198.05a25.82,25.82,0,0,0-.36-4.48A11,11,0,0,0,313.6,190a6.15,6.15,0,0,0-2.26-2.32,6.74,6.74,0,0,0-3.48-.82,8.31,8.31,0,0,0-4.66,1.37,14.64,14.64,0,0,0-3.51,3.14v21.78Z" transform="translate(-5.19)"/><path d="M338.3,183.47a11.62,11.62,0,0,1,4.91.95A9.25,9.25,0,0,1,346.6,187a10.42,10.42,0,0,1,1.95,3.84,17.34,17.34,0,0,1,.61,4.7,23.45,23.45,0,0,1-.36,4H329.64c0,3.56.9,6.27,2.56,8.13s4.17,2.79,7.51,2.79a19.32,19.32,0,0,0,4.51-.52,19.08,19.08,0,0,0,4-1.37l.67,3.07a21,21,0,0,1-4.43,1.53,22.72,22.72,0,0,1-5.15.59,14.8,14.8,0,0,1-6.07-1.16,11.67,11.67,0,0,1-4.3-3.21,13.63,13.63,0,0,1-2.56-4.81,20.14,20.14,0,0,1-.86-6,19.87,19.87,0,0,1,.89-6.07,14.66,14.66,0,0,1,2.53-4.82,11.35,11.35,0,0,1,4-3.17A12.36,12.36,0,0,1,338.3,183.47Zm-.18,3.11a7.3,7.3,0,0,0-3.57.85,8.49,8.49,0,0,0-2.62,2.21,10.42,10.42,0,0,0-1.65,3.09,12.69,12.69,0,0,0-.64,3.55h15.62a10.89,10.89,0,0,0-1.4-6.94Q342.08,186.58,338.12,186.58Z" transform="translate(-5.19)"/><path d="M352.33,184.14h5.31v-7.81h4.09v7.81h9.88v3.29h-9.88v16.21a21.46,21.46,0,0,0,.18,2.94,5.61,5.61,0,0,0,.73,2.17,3.34,3.34,0,0,0,1.5,1.31,6,6,0,0,0,2.47.43,13.47,13.47,0,0,0,2.53-.24,16.9,16.9,0,0,0,2.29-.61l.36,3.07a12,12,0,0,1-2.62.75,17.39,17.39,0,0,1-3.29.33A8.76,8.76,0,0,1,362,213a6.56,6.56,0,0,1-2.53-2.13,8.93,8.93,0,0,1-1.4-3.26,18.27,18.27,0,0,1-.43-4.09V187.43h-5.31Z" transform="translate(-5.19)"/><path d="M377,175.23a2.82,2.82,0,0,1,.79-2,2.67,2.67,0,0,1,2-.82,2.75,2.75,0,0,1,2.08.82,2.82,2.82,0,0,1,.79,2,2.75,2.75,0,0,1-2.87,2.81,2.67,2.67,0,0,1-2-.82A2.75,2.75,0,0,1,377,175.23Zm.79,38v-29.1h4.09v29.1Z" transform="translate(-5.19)"/><path d="M402.42,183.53a21.52,21.52,0,0,1,4.23.42,15.53,15.53,0,0,1,3.63,1.14l-.55,3.2a19.16,19.16,0,0,0-3.41-1.07,17.24,17.24,0,0,0-3.6-.39,11.51,11.51,0,0,0-4.64.85,8.63,8.63,0,0,0-3.23,2.43,10.15,10.15,0,0,0-1.89,3.74,19.27,19.27,0,0,0,0,9.62,10.23,10.23,0,0,0,1.89,3.74,8.5,8.5,0,0,0,3.23,2.42,11.34,11.34,0,0,0,4.64.86,16.82,16.82,0,0,0,3.57-.39,19.35,19.35,0,0,0,3.38-1.07l.61,3.2a15.44,15.44,0,0,1-3.75,1.14,22.3,22.3,0,0,1-4.11.42,15.27,15.27,0,0,1-6.35-1.22,12.16,12.16,0,0,1-4.42-3.33,13.56,13.56,0,0,1-2.56-4.82,20.33,20.33,0,0,1,0-11.5,13.48,13.48,0,0,1,2.56-4.84,12.05,12.05,0,0,1,4.42-3.33A15.27,15.27,0,0,1,402.42,183.53Z" transform="translate(-5.19)"/><path d="M434.87,205.25a7.57,7.57,0,0,1-.83,3.54,8,8,0,0,1-2.29,2.68,11.36,11.36,0,0,1-3.49,1.71,15.46,15.46,0,0,1-4.41.61,22.3,22.3,0,0,1-2.23-.12c-.8-.09-1.58-.2-2.36-.34a19.12,19.12,0,0,1-2.23-.55,16.2,16.2,0,0,1-1.87-.7l.74-3.29a21.9,21.9,0,0,0,3.59,1.21,17.44,17.44,0,0,0,4.27.49,9.5,9.5,0,0,0,5-1.22,4,4,0,0,0,2-3.66,3.72,3.72,0,0,0-.55-2.07A6.07,6.07,0,0,0,428.8,202a10.83,10.83,0,0,0-2.05-1.19l-2.38-1.06c-1-.41-2-.87-3-1.38a15.5,15.5,0,0,1-2.83-1.76,9,9,0,0,1-2.11-2.35,6,6,0,0,1-.82-3.18,7.09,7.09,0,0,1,.77-3.38,6.78,6.78,0,0,1,2.14-2.38,9.6,9.6,0,0,1,3.13-1.4,14.83,14.83,0,0,1,3.78-.46,17.81,17.81,0,0,1,4.51.55,17.5,17.5,0,0,1,3.79,1.4l-.8,3.3a19.06,19.06,0,0,0-3.66-1.44,14.69,14.69,0,0,0-3.84-.52,8.26,8.26,0,0,0-4.15.92,3.25,3.25,0,0,0-1.58,3,3.18,3.18,0,0,0,.55,1.92,5.71,5.71,0,0,0,1.4,1.37,9.83,9.83,0,0,0,1.92,1.07c.71.31,1.43.64,2.17,1s1.74.84,2.8,1.31a14.81,14.81,0,0,1,3,1.77,10.22,10.22,0,0,1,2.38,2.53A6.22,6.22,0,0,1,434.87,205.25Z" transform="translate(-5.19)"/></svg>